<svg xmlns="http://www.w3.org/2000/svg" xmlns:xlink="http://www.w3.org/1999/xlink" width="141" height="141" viewBox="0 0 141 141">
  <defs>
    <path id="cross-icon-a" d="M68.5,136.5 C30.94464,136.5 0.5,106.05536 0.5,68.5 C0.5,30.9446 30.94464,0.5 68.5,0.5 C106.0554,0.5 136.5,30.9446 136.5,68.5 C136.5,106.05536 106.0554,136.5 68.5,136.5 Z"/>
    <path id="cross-icon-c" d="M70.5,141 C31.56393,141 0,109.43607 0,70.5 C0,31.5639 31.56393,0 70.5,0 C109.4361,0 141,31.5639 141,70.5 C141,109.43607 109.4361,141 70.5,141 Z"/>
  </defs>
  <g fill="none" fill-rule="evenodd">
    <g transform="translate(2 2)">
      <mask id="cross-icon-b" fill="#fff">
        <use xlink:href="#cross-icon-a"/>
      </mask>
      <path fill="#FE5169" d="M68.5,139 C107.4361,139 139,107.43607 139,68.5 C139,29.5639 107.4361,-2 68.5,-2 C29.56393,-2 -2,29.5639 -2,68.5 C-2,107.43607 29.56393,139 68.5,139 Z" mask="url(#cross-icon-b)"/>
    </g>
    <mask id="cross-icon-d" fill="#fff">
      <use xlink:href="#cross-icon-c"/>
    </mask>
    <path stroke="#FFF" stroke-width="10" d="M70.5,141 C109.4361,141 141,109.4361 141,70.5 C141,31.56393 109.4361,0 70.5,0 C31.56393,0 0,31.56393 0,70.5 C0,109.4361 31.56393,141 70.5,141 Z" mask="url(#cross-icon-d)"/>
    <path stroke="#FFF" stroke-linejoin="round" stroke-width="5" d="M70.1255904,70.8326972 L43.6464466,44.3535534 L44.3535534,43.6464466 L70.8326972,70.1255904 L97.3118409,43.6464466 L98.0189477,44.3535534 L71.5398039,70.8326972 L98.0189477,97.3118409 L97.3118409,98.0189477 L70.8326972,71.5398039 L44.3535534,98.0189477 L43.6464466,97.3118409 L70.1255904,70.8326972 Z" mask="url(#cross-icon-d)"/>
  </g>
</svg>
